<?xml version="1.0" encoding="UTF-8"?>
<svg width="256px" height="256px" viewBox="0 0 256 256" version="1.1" xmlns="http://www.w3.org/2000/svg">
    <g>
        <path d="M250.715,105.443 C245.93,102.296 236.22,100.658 227.79,101.421 C226.147,95.414 222.118,90.221 216.751,86.098 L213.794,84.079 L211.673,87.036 C208.525,91.639 206.886,97.837 206.506,103.844 C206.315,106.229 206.506,111.232 207.46,115.736 C204.503,117.183 199.691,118.439 192.137,118.439 L2.89,118.439 L2.318,119.886 C0.871,124.198 0.109,131.943 0.109,137.188 C0.109,155.427 6.307,171.647 17.65,183.943 C31.089,198.335 49.71,205.508 71.729,205.508 C131.471,205.508 176.679,177.555 195.866,123.816 C203.421,124.007 218.765,123.816 225.746,113.146 C226.7,111.89 228.528,108.171 230.166,104.071 L231.804,100.658 L228.465,99.021 C227.13,98.258 225.873,97.685 224.617,97.304 C231.613,94.348 239.93,94.157 244.102,94.348 L250.524,94.729 L250.715,105.443 Z M139.025,105.443 L139.025,93.394 L121.167,93.394 L121.167,105.443 L139.025,105.443 Z M117.447,105.443 L117.447,93.394 L99.589,93.394 L99.589,105.443 L117.447,105.443 Z M95.869,105.443 L95.869,93.394 L78.011,93.394 L78.011,105.443 L95.869,105.443 Z M74.291,105.443 L74.291,93.394 L56.433,93.394 L56.433,105.443 L74.291,105.443 Z M52.713,105.443 L52.713,93.394 L34.855,93.394 L34.855,105.443 L52.713,105.443 Z M78.011,83.698 L95.869,83.698 L95.869,71.649 L78.011,71.649 L78.011,83.698 Z M99.589,83.698 L117.447,83.698 L117.447,71.649 L99.589,71.649 L99.589,83.698 Z M121.167,83.698 L139.025,83.698 L139.025,71.649 L121.167,71.649 L121.167,83.698 Z" fill="#2396ED"/>
    </g>
</svg>
